<svg width="24" height="24" viewBox="0 0 24 24" fill="none" xmlns="http://www.w3.org/2000/svg">
    <path
        d="M10 20.777C9.12963 20.5796 8.2937 20.253 7.52002 19.808M14 3.22302C15.9882 3.67709 17.7633 4.79271 19.0347 6.38723C20.3061 7.98174 20.9985 9.96067 20.9985 12C20.9985 14.0394 20.3061 16.0183 19.0347 17.6128C17.7633 19.2073 15.9882 20.323 14 20.777M4.57902 17.093C4.03353 16.3005 3.61922 15.4253 3.35202 14.501M3.12402 10.5C3.28402 9.55002 3.59202 8.65002 4.02402 7.82502L4.19302 7.52002M6.90702 4.57902C7.84268 3.93492 8.89234 3.47474 10 3.22302M12 8.00003V12L15 15"
        stroke="#9EB1D5" stroke-width="2.2" stroke-linecap="round" stroke-linejoin="round" />
</svg>