<svg width="100" height="99" viewBox="0 0 100 99" fill="none" xmlns="http://www.w3.org/2000/svg">
<path id="Vector" d="M98.399 39.193C96.2568 29.1912 91.0508 20.1056 83.505 13.2C82.8488 11.338 81.6509 9.71464 80.0652 8.53856C78.4795 7.36249 76.5783 6.68739 74.606 6.6C67.1261 2.27586 58.6388 -0.000591453 49.999 1.15266e-07C38.6887 0.0364159 27.7291 3.92878 18.9295 11.0344C10.13 18.1401 4.01666 28.0341 1.59898 39.083C-1.10262 51.7355 1.26713 64.943 8.19898 75.867C13.8617 84.7953 22.2377 91.673 32.0972 95.4901C41.9568 99.3072 52.7804 99.8627 62.979 97.075C63.3711 97.6519 63.8948 98.1273 64.5068 98.462C65.1188 98.7967 65.8017 98.9811 66.499 99H84.099C85.2659 99 86.3851 98.5364 87.2103 97.7113C88.0354 96.8861 88.499 95.767 88.499 94.6C88.4952 92.8182 88.1306 91.0556 87.4274 89.4184C86.7241 87.7813 85.6967 86.3034 84.407 85.074C90.9032 78.8111 95.5565 70.8857 97.86 62.161C98.8488 58.4205 99.3988 54.5777 99.499 50.71V50.281C99.499 50.017 99.499 49.764 99.499 49.5C99.4952 46.0352 99.1265 42.5805 98.399 39.193ZM84.011 19.954C88.416 24.9928 91.6371 30.954 93.438 37.4H87.399C87.3908 35.0908 86.777 32.8242 85.6189 30.8264C84.4608 28.8286 82.7988 27.1696 80.799 26.015C82.5577 24.442 83.6968 22.2925 84.011 19.954ZM82.999 37.4H65.399C65.399 35.0661 66.3261 32.8278 67.9764 31.1775C69.6268 29.5271 71.8651 28.6 74.199 28.6C76.5329 28.6 78.7712 29.5271 80.4215 31.1775C82.0718 32.8278 82.999 35.0661 82.999 37.4ZM68.699 16.5C68.699 15.0413 69.2784 13.6424 70.3099 12.6109C71.3413 11.5795 72.7403 11 74.199 11C75.6577 11 77.0566 11.5795 78.0881 12.6109C79.1195 13.6424 79.699 15.0413 79.699 16.5V18.7C79.699 20.1587 79.1195 21.5576 78.0881 22.5891C77.0566 23.6205 75.6577 24.2 74.199 24.2C72.7403 24.2 71.3413 23.6205 70.3099 22.5891C69.2784 21.5576 68.699 20.1587 68.699 18.7V16.5ZM11.301 72.6C5.74549 63.3579 3.7106 52.4218 5.56998 41.8H19.265C19.5494 44.1966 20.6995 46.4068 22.499 48.015C20.4991 49.1696 18.8372 50.8286 17.6791 52.8264C16.5209 54.8242 15.9071 57.0908 15.899 59.4C15.899 60.567 16.3625 61.6861 17.1877 62.5113C18.0129 63.3364 19.132 63.8 20.299 63.8H29.858C29.359 64.8286 29.0995 65.9568 29.099 67.1V69.3C29.099 70.1752 28.7513 71.0146 28.1324 71.6335C27.5136 72.2523 26.6742 72.6 25.799 72.6H11.301ZM29.099 50.6C31.4329 50.6 33.6712 51.5271 35.3215 53.1775C36.9718 54.8278 37.899 57.0661 37.899 59.4H20.299C20.299 57.0661 21.2261 54.8278 22.8764 53.1775C24.5268 51.5271 26.7651 50.6 29.099 50.6ZM23.599 40.7V38.5C23.599 37.0413 24.1784 35.6424 25.2099 34.6109C26.2413 33.5795 27.6403 33 29.099 33C30.5577 33 31.9566 33.5795 32.9881 34.6109C34.0195 35.6424 34.599 37.0413 34.599 38.5V40.7C34.599 42.1587 34.0195 43.5576 32.9881 44.5891C31.9566 45.6205 30.5577 46.2 29.099 46.2C27.6403 46.2 26.2413 45.6205 25.2099 44.5891C24.1784 43.5576 23.599 42.1587 23.599 40.7ZM62.22 92.906C60.7318 93.3284 59.2228 93.6735 57.699 93.94V89.1C57.699 87.0578 56.8877 85.0993 55.4437 83.6553C53.9997 82.2113 52.0411 81.4 49.999 81.4H47.799C47.3364 81.4023 46.8785 81.3074 46.455 81.1213C46.0315 80.9352 45.6518 80.6622 45.3406 80.3199C45.0295 79.9776 44.7937 79.5737 44.6487 79.1344C44.5037 78.6951 44.4527 78.2303 44.499 77.77C44.62 76.9297 45.0453 76.163 45.6941 75.6156C46.343 75.0681 47.1703 74.7779 48.019 74.8H65.399V75.9C65.4079 77.2821 65.7062 78.647 66.2746 79.9069C66.8429 81.1667 67.6688 82.2936 68.699 83.215C66.9492 84.2265 65.455 85.6263 64.3317 87.3065C63.2084 88.9867 62.4859 90.9025 62.22 92.906ZM66.499 94.6C66.499 92.2661 67.4261 90.0278 69.0764 88.3775C70.7268 86.7271 72.9651 85.8 75.299 85.8C77.6329 85.8 79.8712 86.7271 81.5215 88.3775C83.1718 90.0278 84.099 92.2661 84.099 94.6H66.499ZM69.799 75.9V73.7C69.799 72.2413 70.3784 70.8424 71.4099 69.8109C72.4413 68.7795 73.8403 68.2 75.299 68.2C76.7577 68.2 78.1566 68.7795 79.1881 69.8109C80.2195 70.8424 80.799 72.2413 80.799 73.7V75.9C80.799 77.3587 80.2195 78.7576 79.1881 79.7891C78.1566 80.8205 76.7577 81.4 75.299 81.4C73.8403 81.4 72.4413 80.8205 71.4099 79.7891C70.3784 78.7576 69.799 77.3587 69.799 75.9ZM84.979 77.968C85.1247 77.2883 85.1984 76.5951 85.199 75.9V73.7C85.1964 71.9798 84.7457 70.29 83.8912 68.797C83.0367 67.304 81.8079 66.0595 80.326 65.186C80.6296 64.7595 81.0304 64.4114 81.4952 64.1704C81.96 63.9294 82.4754 63.8024 82.999 63.8H92.767C91.0498 68.9551 88.411 73.7556 84.979 77.968ZM93.999 59.4H82.999C81.5408 59.3989 80.1123 59.8118 78.8797 60.5907C77.647 61.3696 76.6609 62.4826 76.036 63.8C75.794 63.8 75.552 63.8 75.299 63.8C73.2546 63.8035 71.2614 64.4398 69.5932 65.6215C67.9249 66.8033 66.6634 68.4725 65.982 70.4H48.03C46.0837 70.3779 44.1978 71.0752 42.7341 72.3582C41.2704 73.6413 40.332 75.4196 40.099 77.352C39.9943 78.4242 40.1158 79.5065 40.4556 80.5288C40.7954 81.5512 41.346 82.4908 42.0717 83.287C42.7974 84.0833 43.6822 84.7183 44.6687 85.1512C45.6553 85.5841 46.7217 85.8051 47.799 85.8H49.999C50.8742 85.8 51.7136 86.1477 52.3324 86.7665C52.9513 87.3854 53.299 88.2248 53.299 89.1V94.468C52.2136 94.556 51.1136 94.6 49.999 94.6C43.0943 94.6122 36.28 93.0304 30.0867 89.9777C23.8935 86.925 18.4886 82.4838 14.293 77H25.799C27.8411 77 29.7997 76.1888 31.2437 74.7447C32.6877 73.3007 33.499 71.3422 33.499 69.3V67.1C33.499 66.2248 33.8467 65.3854 34.4655 64.7665C35.0844 64.1477 35.9238 63.8 36.799 63.8H49.999C52.0411 63.8 53.9997 62.9888 55.4437 61.5447C56.8877 60.1007 57.699 58.1422 57.699 56.1C57.699 54.0578 56.8877 52.0993 55.4437 50.6553C53.9997 49.2112 52.0411 48.4 49.999 48.4H36.381C36.172 48.268 35.963 48.136 35.743 48.015C36.7652 47.0897 37.5828 45.961 38.1435 44.7014C38.7042 43.4417 38.9956 42.0788 38.999 40.7V38.5C38.9886 35.9768 38.0152 33.5527 36.2776 31.7231C34.54 29.8934 32.1694 28.7963 29.65 28.6559C27.1307 28.5154 24.6528 29.3423 22.7226 30.9675C20.7924 32.5927 19.5557 34.8935 19.265 37.4H6.55998C9.23538 27.9287 14.9212 19.5857 22.7582 13.6321C30.5951 7.67852 40.1571 4.43787 49.999 4.4C56.3824 4.40068 62.6915 5.76977 68.501 8.415C67.2043 9.32763 66.1458 10.5384 65.4145 11.9453C64.6833 13.3523 64.3007 14.9144 64.299 16.5V18.7C64.3079 20.0821 64.6062 21.447 65.1746 22.7069C65.7429 23.9667 66.5688 25.0936 67.599 26.015C65.5991 27.1696 63.9372 28.8286 62.779 30.8264C61.6209 32.8242 61.0071 35.0908 60.999 37.4C60.999 38.567 61.4625 39.6861 62.2877 40.5113C63.1129 41.3364 64.232 41.8 65.399 41.8H76.058C75.559 42.8286 75.2995 43.9568 75.299 45.1C75.299 47.1422 76.1102 49.1007 77.5543 50.5447C78.9983 51.9888 80.9568 52.8 82.999 52.8H94.956C94.7936 55.0199 94.4738 57.2254 93.999 59.4ZM40.517 52.8H49.999C50.8742 52.8 51.7136 53.1477 52.3324 53.7666C52.9513 54.3854 53.299 55.2248 53.299 56.1C53.299 56.9752 52.9513 57.8146 52.3324 58.4335C51.7136 59.0523 50.8742 59.4 49.999 59.4H42.299C42.2949 57.0817 41.6803 54.8053 40.517 52.8ZM82.999 48.4C82.1238 48.4 81.2844 48.0523 80.6655 47.4335C80.0466 46.8146 79.699 45.9752 79.699 45.1C79.699 44.2248 80.0466 43.3854 80.6655 42.7666C81.2844 42.1477 82.1238 41.8 82.999 41.8H94.428C94.8105 43.9809 95.0347 46.1867 95.099 48.4H82.999Z" fill="#D0DCF0" fill-opacity="0.5"/>
</svg>
