<svg width="101" height="81" viewBox="0 0 101 81" fill="none" xmlns="http://www.w3.org/2000/svg">
<g id="Vector">
<path fill-rule="evenodd" clip-rule="evenodd" d="M97.7509 25.6619C96.8151 21.1735 93.8712 17.6183 90.0535 15.7392L87.4759 3.37537C87.0601 1.38132 85.1066 0.10184 83.1126 0.517568C81.1185 0.933296 79.839 2.88681 80.2548 4.88086L81.9286 12.9094C72.143 3.72255 57.4427 -0.655617 42.4029 2.47993C27.5176 5.58328 15.8782 15.3008 10.503 27.4558L8.89806 19.7576C8.48234 17.7636 6.52883 16.4841 4.53478 16.8998C2.54073 17.3155 1.26124 19.269 1.67697 21.2631L4.21853 33.4537C1.33891 36.72 -0.0198179 41.2553 0.937269 45.846L3.22473 56.8179C4.66658 63.7337 10.8761 68.4341 17.7037 68.2013C27.4562 78.2688 42.8175 83.2108 58.5502 79.9308C74.2822 76.6509 86.3885 65.9831 91.3059 52.858C97.6629 50.3458 101.481 43.5527 100.038 36.6338L97.7509 25.6619ZM14.7073 30.9434C14.8935 30.2579 15.3313 29.7343 15.8225 29.3002C24.5118 21.6217 38.7151 16.1727 44.8864 14.3716C51.2632 13.5566 66.4607 12.876 77.4944 16.4426C78.1182 16.6442 78.7287 16.9493 79.1733 17.5033C81.443 20.3312 84.304 28.4071 85.743 33.0455C85.9001 33.5518 86.0073 34.066 86.0657 34.5929C86.6 39.42 87.2045 47.9663 86.2539 51.4656C86.0677 52.1511 85.6299 52.6747 85.1387 53.1088C78.9335 58.5922 69.9164 62.9386 63.0204 65.6314C58.4603 67.4122 53.6383 68.4175 48.7465 68.6073C41.3489 68.8944 31.3462 68.5134 23.4668 65.9664C22.8431 65.7648 22.2325 65.4597 21.7879 64.9057C19.5182 62.0778 16.6572 54.0019 15.2182 49.3635C15.0611 48.8572 14.9539 48.343 14.8955 47.8161C14.3612 42.9891 13.7568 34.4427 14.7073 30.9434Z" fill="#EBEFF6"/>
<path d="M39.2611 38.5317C40.3328 43.6725 37.0342 48.7089 31.8934 49.7806C26.7525 50.8524 21.7162 47.5538 20.6444 42.4129C19.5726 37.2721 22.8712 32.2358 28.0121 31.164C33.1529 30.0922 38.1893 33.3908 39.2611 38.5317Z" fill="#EBEFF6"/>
<path d="M78.5628 30.3379C79.6346 35.4787 76.336 40.5151 71.1951 41.5868C66.0543 42.6586 61.018 39.36 59.9462 34.2191C58.8744 29.0783 62.173 24.042 67.3139 22.9702C72.4547 21.8984 77.4911 25.197 78.5628 30.3379Z" fill="#EBEFF6"/>
<path fill-rule="evenodd" clip-rule="evenodd" d="M61.5128 47.2165C62.9531 47.8464 63.61 49.5247 62.9801 50.965C62.0857 53.0098 59.2124 56.2114 54.0399 57.2898C48.8855 58.3644 44.8005 56.639 43.0951 55.2933C41.861 54.3195 41.65 52.5297 42.6237 51.2956C43.5975 50.0615 45.3874 49.8504 46.6215 50.8242C47.0798 51.1859 49.4644 52.4285 52.8781 51.7168C54.5591 51.3663 55.7479 50.6978 56.5404 50.0586C56.9407 49.7357 57.2395 49.4206 57.4479 49.1587C57.5519 49.028 57.6293 48.9157 57.6836 48.8282C57.7105 48.7848 57.7304 48.7498 57.7442 48.7239L57.7594 48.6941L57.7643 48.6837C58.3943 47.2435 60.0725 46.5865 61.5128 47.2165Z" fill="#EBEFF6"/>
</g>
</svg>
