<svg width="20" height="20" viewBox="0 0 20 20" fill="none" xmlns="http://www.w3.org/2000/svg">
<path d="M10.4167 13.333H3.33333C3.11232 13.333 2.90036 13.2452 2.74408 13.0889C2.5878 12.9326 2.5 12.7207 2.5 12.4997V4.16634C2.5 3.94533 2.5878 3.73337 2.74408 3.57709C2.90036 3.42081 3.11232 3.33301 3.33333 3.33301H16.6667C16.8877 3.33301 17.0996 3.42081 17.2559 3.57709C17.4122 3.73337 17.5 3.94533 17.5 4.16634V10.833M5.83333 16.6663H9.16667M7.5 13.333V16.6663M16.6667 17.4997L18.3333 15.833L16.6667 14.1663M14.1667 14.1663L12.5 15.833L14.1667 17.4997" stroke="#9EB1D5" stroke-width="1.6" stroke-linecap="round" stroke-linejoin="round"/>
</svg>
