<svg width="87" height="25" viewBox="0 0 87 25" fill="none" xmlns="http://www.w3.org/2000/svg">
<g clip-path="url(#clip0_8112_16275)">
<path d="M8.7998 9.2334L11.8256 12.2591C12.0398 12.4734 12.0398 12.8208 11.8256 13.035L8.7998 16.0608" stroke="url(#paint0_linear_8112_16275)" stroke-width="2.43835" stroke-linecap="round" stroke-linejoin="round"/>
<path fill-rule="evenodd" clip-rule="evenodd" d="M7.93766 8.37125C8.41377 7.89513 9.18571 7.89513 9.66182 8.37125L12.6876 11.397C13.3779 12.0874 13.3779 13.2067 12.6876 13.897L9.66182 16.9228C9.18571 17.3989 8.41377 17.3989 7.93766 16.9228C7.46154 16.4467 7.46154 15.6747 7.93766 15.1986L10.4893 12.647L7.93766 10.0954C7.46154 9.6193 7.46154 8.84737 7.93766 8.37125Z" fill="url(#paint1_linear_8112_16275)"/>
<mask id="mask0_8112_16275" style="mask-type:alpha" maskUnits="userSpaceOnUse" x="7" y="8" width="7" height="10">
<path fill-rule="evenodd" clip-rule="evenodd" d="M7.93766 8.37125C8.41377 7.89513 9.18571 7.89513 9.66182 8.37125L12.6876 11.397C13.3779 12.0874 13.3779 13.2067 12.6876 13.897L9.66182 16.9228C9.18571 17.3989 8.41377 17.3989 7.93766 16.9228C7.46154 16.4467 7.46154 15.6747 7.93766 15.1986L10.4893 12.647L7.93766 10.0954C7.46154 9.6193 7.46154 8.84737 7.93766 8.37125Z" fill="url(#paint2_linear_8112_16275)"/>
</mask>
<g mask="url(#mask0_8112_16275)">
<g style="mix-blend-mode:multiply" filter="url(#filter0_f_8112_16275)">
<path d="M7.95924 8.39259C8.42346 7.92838 9.1761 7.92838 9.64032 8.39259L12.6661 11.4183C13.3446 12.0968 13.3446 13.1968 12.6661 13.8753L9.64032 16.9011C9.1761 17.3653 8.42346 17.3653 7.95924 16.9011C7.49503 16.4368 7.49503 15.6842 7.95924 15.2199L10.5108 12.6684C10.5227 12.6565 10.5227 12.6372 10.5108 12.6253L7.95924 10.0737C7.49503 9.60945 7.49503 8.85681 7.95924 8.39259Z" stroke="black" stroke-opacity="0.2" stroke-width="0.0609587" stroke-linecap="round" stroke-linejoin="round"/>
</g>
</g>
<mask id="mask1_8112_16275" style="mask-type:alpha" maskUnits="userSpaceOnUse" x="7" y="8" width="7" height="10">
<path fill-rule="evenodd" clip-rule="evenodd" d="M7.93766 8.37125C8.41377 7.89513 9.18571 7.89513 9.66182 8.37125L12.6876 11.397C13.3779 12.0874 13.3779 13.2067 12.6876 13.897L9.66182 16.9228C9.18571 17.3989 8.41377 17.3989 7.93766 16.9228C7.46154 16.4467 7.46154 15.6747 7.93766 15.1986L10.4893 12.647L7.93766 10.0954C7.46154 9.6193 7.46154 8.84737 7.93766 8.37125Z" fill="url(#paint3_linear_8112_16275)"/>
</mask>
<g mask="url(#mask1_8112_16275)">
<g style="mix-blend-mode:multiply" filter="url(#filter1_f_8112_16275)">
<path fill-rule="evenodd" clip-rule="evenodd" d="M7.93766 15.1986C7.46154 15.6747 7.46154 16.4467 7.93766 16.9228C8.41377 17.3989 9.18571 17.3989 9.66182 16.9228L12.6876 13.897C13.3779 13.2067 13.3779 12.0874 12.6876 11.397L9.66182 8.37125C9.18571 7.89513 8.41377 7.89513 7.93766 8.37125C7.46154 8.84737 7.46154 9.6193 7.93766 10.0954L10.4893 12.647L7.93766 15.1986ZM10.5755 12.5608C10.6231 12.6084 10.6231 12.6856 10.5755 12.7332L8.02386 15.2848C7.59536 15.7134 7.59536 16.4081 8.02386 16.8366C8.45237 17.2651 9.14711 17.2651 9.57562 16.8366L12.6014 13.8108C13.2441 13.1681 13.2441 12.126 12.6014 11.4832L9.57562 8.45746C9.14711 8.02895 8.45237 8.02895 8.02386 8.45746C7.59536 8.88596 7.59536 9.58071 8.02386 10.0092L10.5755 12.5608Z" fill="black" fill-opacity="0.1"/>
</g>
</g>
<mask id="mask2_8112_16275" style="mask-type:alpha" maskUnits="userSpaceOnUse" x="7" y="8" width="7" height="10">
<path fill-rule="evenodd" clip-rule="evenodd" d="M7.93766 8.37125C8.41377 7.89513 9.18571 7.89513 9.66182 8.37125L12.6876 11.397C13.3779 12.0874 13.3779 13.2067 12.6876 13.897L9.66182 16.9228C9.18571 17.3989 8.41377 17.3989 7.93766 16.9228C7.46154 16.4467 7.46154 15.6747 7.93766 15.1986L10.4893 12.647L7.93766 10.0954C7.46154 9.6193 7.46154 8.84737 7.93766 8.37125Z" fill="url(#paint4_linear_8112_16275)"/>
</mask>
<g mask="url(#mask2_8112_16275)">
<g filter="url(#filter2_f_8112_16275)">
<path fill-rule="evenodd" clip-rule="evenodd" d="M7.93766 15.1986C7.46154 15.6747 7.46154 16.4467 7.93766 16.9228C8.41377 17.3989 9.18571 17.3989 9.66182 16.9228L12.6876 13.897C13.3779 13.2067 13.3779 12.0874 12.6876 11.397L9.66182 8.37125C9.18571 7.89513 8.41377 7.89513 7.93766 8.37125C7.46154 8.84737 7.46154 9.6193 7.93766 10.0954L10.4893 12.647L7.93766 15.1986ZM10.5755 12.5608C10.6231 12.6084 10.6231 12.6856 10.5755 12.7332L8.02386 15.2848C7.59536 15.7134 7.59536 16.4081 8.02386 16.8366C8.45237 17.2651 9.14711 17.2651 9.57562 16.8366L12.6014 13.8108C13.2441 13.1681 13.2441 12.126 12.6014 11.4832L9.57562 8.45746C9.14711 8.02895 8.45237 8.02895 8.02386 8.45746C7.59536 8.88596 7.59536 9.58071 8.02386 10.0092L10.5755 12.5608Z" fill="black" fill-opacity="0.2"/>
</g>
</g>
<mask id="mask3_8112_16275" style="mask-type:alpha" maskUnits="userSpaceOnUse" x="7" y="8" width="7" height="10">
<path fill-rule="evenodd" clip-rule="evenodd" d="M7.93766 8.37125C8.41377 7.89513 9.18571 7.89513 9.66182 8.37125L12.6876 11.397C13.3779 12.0874 13.3779 13.2067 12.6876 13.897L9.66182 16.9228C9.18571 17.3989 8.41377 17.3989 7.93766 16.9228C7.46154 16.4467 7.46154 15.6747 7.93766 15.1986L10.4893 12.647L7.93766 10.0954C7.46154 9.6193 7.46154 8.84737 7.93766 8.37125Z" fill="url(#paint5_linear_8112_16275)"/>
</mask>
<g mask="url(#mask3_8112_16275)">
<g filter="url(#filter3_f_8112_16275)">
<path fill-rule="evenodd" clip-rule="evenodd" d="M7.93766 15.1986C7.46154 15.6747 7.46154 16.4467 7.93766 16.9228C8.41377 17.3989 9.18571 17.3989 9.66182 16.9228L12.6876 13.897C13.3779 13.2067 13.3779 12.0874 12.6876 11.397L9.66182 8.37125C9.18571 7.89513 8.41377 7.89513 7.93766 8.37125C7.46154 8.84737 7.46154 9.6193 7.93766 10.0954L10.4893 12.647L7.93766 15.1986ZM10.6617 12.4746C10.7569 12.5698 10.7569 12.7242 10.6617 12.8194L8.11007 15.371C7.72918 15.752 7.72918 16.3695 8.11007 16.7504C8.49097 17.1313 9.10851 17.1313 9.48941 16.7504L12.5152 13.7247C13.1103 13.1295 13.1103 12.1646 12.5152 11.5694L9.48941 8.54367C9.10851 8.16277 8.49097 8.16277 8.11007 8.54367C7.72918 8.92456 7.72918 9.54211 8.11007 9.923L10.6617 12.4746Z" fill="black" fill-opacity="0.3"/>
</g>
</g>
<g style="mix-blend-mode:color-dodge" filter="url(#filter4_f_8112_16275)">
<path fill-rule="evenodd" clip-rule="evenodd" d="M8.26102 8.69437C8.55859 8.3968 9.04106 8.3968 9.33863 8.69437L12.3644 11.7201C12.8762 12.2319 12.8762 13.0618 12.3644 13.5736L9.33863 16.5994C9.04106 16.8969 8.55859 16.8969 8.26102 16.5994C7.96345 16.3018 7.96345 15.8193 8.26102 15.5217L11.1359 12.6469L8.26102 9.77198C7.96345 9.47441 7.96345 8.99194 8.26102 8.69437Z" fill="url(#paint6_linear_8112_16275)" fill-opacity="0.08"/>
</g>
<g style="mix-blend-mode:screen" filter="url(#filter5_f_8112_16275)">
<path d="M8.7998 16.0608L11.61 13.2505C11.9433 12.9173 11.9433 12.3769 11.61 12.0436L8.7998 9.2334" stroke="url(#paint7_linear_8112_16275)" stroke-opacity="0.37" stroke-width="0.609587" stroke-linecap="round"/>
</g>
</g>
<path d="M39.2386 13.6524C39.2386 15.6968 37.5812 17.3542 35.5368 17.3542C33.4925 17.3542 31.8351 15.6968 31.8351 13.6524C31.8351 11.6081 33.4925 9.95068 35.5368 9.95068C37.5812 9.95068 39.2386 11.6081 39.2386 13.6524ZM33.8977 13.6524C33.8977 14.5577 34.6316 15.2916 35.5368 15.2916C36.4421 15.2916 37.176 14.5577 37.176 13.6524C37.176 12.7472 36.4421 12.0133 35.5368 12.0133C34.6316 12.0133 33.8977 12.7472 33.8977 13.6524Z" fill="white"/>
<path d="M47.5095 13.6524C47.5095 15.6968 45.8521 17.3542 43.8077 17.3542C41.7633 17.3542 40.106 15.6968 40.106 13.6524C40.106 11.6081 41.7633 9.95068 43.8077 9.95068C45.8521 9.95068 47.5095 11.6081 47.5095 13.6524ZM42.1686 13.6524C42.1686 14.5577 42.9025 15.2916 43.8077 15.2916C44.7129 15.2916 45.4469 14.5577 45.4469 13.6524C45.4469 12.7472 44.7129 12.0133 43.8077 12.0133C42.9025 12.0133 42.1686 12.7472 42.1686 13.6524Z" fill="white"/>
<path fill-rule="evenodd" clip-rule="evenodd" d="M54.7606 7.96875C54.1936 7.96875 53.7337 8.42865 53.7337 8.99568V10.3156C53.2374 10.0685 52.6776 9.92932 52.0858 9.92932C50.0414 9.92932 48.384 11.5867 48.384 13.6311C48.384 15.6755 50.0414 17.3328 52.0858 17.3328C52.7432 17.3328 53.3613 17.1616 53.8962 16.8606C54.0792 17.1448 54.3977 17.3328 54.7606 17.3328C55.3277 17.3328 55.7876 16.8729 55.7876 16.3059V8.99568C55.7876 8.42865 55.3277 7.96875 54.7606 7.96875ZM52.0858 15.2702C51.1806 15.2702 50.4466 14.5363 50.4466 13.6311C50.4466 12.7259 51.1806 11.9919 52.0858 11.9919C52.991 11.9919 53.7249 12.7259 53.7249 13.6311C53.7249 14.5363 52.991 15.2702 52.0858 15.2702Z" fill="white"/>
<path d="M58.7161 8.97273C58.7161 8.40557 58.2563 7.9458 57.6892 7.9458C57.122 7.9458 56.6622 8.40557 56.6622 8.97273V16.3057C56.6622 16.8729 57.122 17.3327 57.6892 17.3327C58.2563 17.3327 58.7161 16.8729 58.7161 16.3057V8.97273Z" fill="white"/>
<path d="M68.0063 15.2954C68.5733 15.2954 69.0332 15.7553 69.0332 16.3223C69.0332 16.8901 68.5733 17.3493 68.0063 17.3493C67.4393 17.3493 66.9794 16.8894 66.9794 16.3223C66.9794 15.7546 67.4393 15.2954 68.0063 15.2954Z" fill="white"/>
<path d="M66.0656 15.8628C66.2354 16.3249 66 16.9582 65.5262 17.0909C65.1341 17.2002 64.7442 17.2745 64.3557 17.3124C63.7129 17.3751 63.1028 17.3394 62.5263 17.2053C61.9593 17.0799 61.4535 16.8613 61.0089 16.5479C60.5643 16.2352 60.2145 15.8373 59.9594 15.354C59.7137 14.8708 59.5906 14.3125 59.5906 13.6777C59.5906 13.15 59.6802 12.6676 59.8602 12.2288C60.049 11.782 60.3143 11.3928 60.6547 11.0619C60.995 10.7223 61.3966 10.4628 61.8602 10.2843C62.3237 10.0962 62.8295 10.0029 63.3776 10.0029C63.8688 10.0029 64.3134 10.0787 64.7107 10.2311C65.1079 10.3834 65.4526 10.5977 65.7456 10.8746C66.0386 11.1428 66.2747 11.465 66.4548 11.8403C66.634 12.2157 66.7477 12.6275 66.7951 13.0742C66.8826 13.9029 66.1129 14.4962 65.2799 14.4962H62.03C62.2093 14.8358 62.5074 15.0778 62.9235 15.2207C63.3492 15.3635 63.8499 15.4087 64.4264 15.3548C64.5357 15.3446 64.6465 15.3315 64.7588 15.3154C65.3367 15.2316 65.8644 15.3154 66.0656 15.8642V15.8628ZM63.3193 11.9868C63.0453 11.9868 62.7902 12.0582 62.5533 12.2011C62.3266 12.344 62.1517 12.5633 62.0285 12.8585H64.5955C64.4818 12.5546 64.312 12.3352 64.0853 12.2011C63.8681 12.0582 63.6123 11.9868 63.3193 11.9868Z" fill="white"/>
<path fill-rule="evenodd" clip-rule="evenodd" d="M74.6925 16.8841C74.1602 17.1832 73.546 17.3538 72.892 17.3538C70.8589 17.3538 69.2107 15.7056 69.2107 13.6725C69.2107 11.6394 70.8589 9.99121 72.892 9.99121C73.5461 9.99121 74.1604 10.1618 74.6927 10.461C74.8744 10.1785 75.1915 9.99145 75.5522 9.99145C76.1162 9.99145 76.5734 10.4487 76.5734 11.0126V16.3328C76.5734 16.8968 76.1162 17.354 75.5522 17.354C75.1913 17.354 74.8741 17.1668 74.6925 16.8841ZM72.892 15.303C71.9915 15.303 71.2615 14.573 71.2615 13.6725C71.2615 12.772 71.9915 12.042 72.892 12.042C73.7925 12.042 74.5225 12.772 74.5225 13.6725C74.5225 14.573 73.7925 15.303 72.892 15.303Z" fill="white"/>
<rect x="77.4557" y="9.9458" width="2.04238" height="7.40353" rx="1.02119" fill="white"/>
<rect x="77.4557" y="7.41992" width="2.04238" height="2.0422" rx="1.0211" fill="white"/>
<path d="M17.3807 15.3721C18.2321 16.5747 21.6581 17.1928 21.8461 13.7527C21.8604 13.4906 21.8603 10.0247 21.8603 8.99652" stroke="white" stroke-width="2.0422" stroke-linecap="round"/>
<path fill-rule="evenodd" clip-rule="evenodd" d="M23.7618 8.9897L23.7619 8.99972V16.3231C23.7619 16.3265 23.7618 16.3298 23.7618 16.3332C23.7618 16.897 24.2189 17.3541 24.7828 17.3541H26.3427C26.366 17.3541 26.3891 17.3533 26.412 17.3518C27.6043 17.3152 28.74 16.8256 29.586 15.9796C30.4661 15.0995 30.9605 13.906 30.9605 12.6614C30.9605 11.4168 30.4661 10.2233 29.586 9.34323C28.7173 8.47444 27.5429 7.98149 26.3156 7.96904L26.2911 7.96875H24.7828C24.2189 7.96875 23.7618 8.42584 23.7618 8.9897ZM26.3084 15.3122C26.9968 15.3017 27.6549 15.0237 28.1425 14.536C28.6397 14.0388 28.919 13.3645 28.919 12.6614C28.919 11.9583 28.6397 11.284 28.1425 10.7868C27.6542 10.2985 26.9951 10.0203 26.3056 10.0105L26.2911 10.0106H25.8038V15.3122H26.3084Z" fill="white"/>
<defs>
<filter id="filter0_f_8112_16275" x="7.48913" y="7.92272" width="5.80775" height="9.4485" filterUnits="userSpaceOnUse" color-interpolation-filters="sRGB">
<feFlood flood-opacity="0" result="BackgroundImageFix"/>
<feBlend mode="normal" in="SourceGraphic" in2="BackgroundImageFix" result="shape"/>
<feGaussianBlur stdDeviation="0.0457191" result="effect1_foregroundBlur_8112_16275"/>
</filter>
<filter id="filter1_f_8112_16275" x="7.42817" y="7.86176" width="5.92955" height="9.57042" filterUnits="userSpaceOnUse" color-interpolation-filters="sRGB">
<feFlood flood-opacity="0" result="BackgroundImageFix"/>
<feBlend mode="normal" in="SourceGraphic" in2="BackgroundImageFix" result="shape"/>
<feGaussianBlur stdDeviation="0.0761984" result="effect1_foregroundBlur_8112_16275"/>
</filter>
<filter id="filter2_f_8112_16275" x="7.21481" y="7.64841" width="6.35626" height="9.99713" filterUnits="userSpaceOnUse" color-interpolation-filters="sRGB">
<feFlood flood-opacity="0" result="BackgroundImageFix"/>
<feBlend mode="normal" in="SourceGraphic" in2="BackgroundImageFix" result="shape"/>
<feGaussianBlur stdDeviation="0.182876" result="effect1_foregroundBlur_8112_16275"/>
</filter>
<filter id="filter3_f_8112_16275" x="6.84906" y="7.28266" width="7.08777" height="10.7286" filterUnits="userSpaceOnUse" color-interpolation-filters="sRGB">
<feFlood flood-opacity="0" result="BackgroundImageFix"/>
<feBlend mode="normal" in="SourceGraphic" in2="BackgroundImageFix" result="shape"/>
<feGaussianBlur stdDeviation="0.365752" result="effect1_foregroundBlur_8112_16275"/>
</filter>
<filter id="filter4_f_8112_16275" x="7.12346" y="7.55681" width="6.53921" height="10.1803" filterUnits="userSpaceOnUse" color-interpolation-filters="sRGB">
<feFlood flood-opacity="0" result="BackgroundImageFix"/>
<feBlend mode="normal" in="SourceGraphic" in2="BackgroundImageFix" result="shape"/>
<feGaussianBlur stdDeviation="0.457191" result="effect1_foregroundBlur_8112_16275"/>
</filter>
<filter id="filter5_f_8112_16275" x="7.98294" y="8.41666" width="4.69391" height="8.46112" filterUnits="userSpaceOnUse" color-interpolation-filters="sRGB">
<feFlood flood-opacity="0" result="BackgroundImageFix"/>
<feBlend mode="normal" in="SourceGraphic" in2="BackgroundImageFix" result="shape"/>
<feGaussianBlur stdDeviation="0.256027" result="effect1_foregroundBlur_8112_16275"/>
</filter>
<linearGradient id="paint0_linear_8112_16275" x1="9.19134" y1="9.17066" x2="9.13352" y2="16.0613" gradientUnits="userSpaceOnUse">
<stop stop-color="#FEED30"/>
<stop offset="0.503952" stop-color="#FEA574"/>
<stop offset="1" stop-color="#FE5E85"/>
</linearGradient>
<linearGradient id="paint1_linear_8112_16275" x1="9.19128" y1="9.1706" x2="9.13346" y2="16.0613" gradientUnits="userSpaceOnUse">
<stop stop-color="#FEED30"/>
<stop offset="0.484" stop-color="#FF9459"/>
<stop offset="1" stop-color="#FF567F"/>
</linearGradient>
<linearGradient id="paint2_linear_8112_16275" x1="9.19128" y1="9.1706" x2="9.13346" y2="16.0613" gradientUnits="userSpaceOnUse">
<stop stop-color="#FEED30"/>
<stop offset="0.484" stop-color="#FF9459"/>
<stop offset="1" stop-color="#FF567F"/>
</linearGradient>
<linearGradient id="paint3_linear_8112_16275" x1="9.19128" y1="9.1706" x2="9.13346" y2="16.0613" gradientUnits="userSpaceOnUse">
<stop stop-color="#FEED30"/>
<stop offset="0.503952" stop-color="#FEA574"/>
<stop offset="1" stop-color="#FE5E85"/>
</linearGradient>
<linearGradient id="paint4_linear_8112_16275" x1="9.19128" y1="9.1706" x2="9.13346" y2="16.0613" gradientUnits="userSpaceOnUse">
<stop stop-color="#FEED30"/>
<stop offset="0.503952" stop-color="#FEA574"/>
<stop offset="1" stop-color="#FE5E85"/>
</linearGradient>
<linearGradient id="paint5_linear_8112_16275" x1="9.19128" y1="9.1706" x2="9.13346" y2="16.0613" gradientUnits="userSpaceOnUse">
<stop stop-color="#FEED30"/>
<stop offset="0.503952" stop-color="#FEA574"/>
<stop offset="1" stop-color="#FE5E85"/>
</linearGradient>
<linearGradient id="paint6_linear_8112_16275" x1="9.19136" y1="9.17044" x2="9.13354" y2="16.0611" gradientUnits="userSpaceOnUse">
<stop stop-color="#FEED30"/>
<stop offset="0.503952" stop-color="#FEA574"/>
<stop offset="1" stop-color="#FE5E85"/>
</linearGradient>
<linearGradient id="paint7_linear_8112_16275" x1="8.86754" y1="9.1371" x2="8.81006" y2="16.3662" gradientUnits="userSpaceOnUse">
<stop stop-color="#FEED30"/>
<stop offset="0.503952" stop-color="#FEA574"/>
<stop offset="1" stop-color="#FE5E85"/>
</linearGradient>
<clipPath id="clip0_8112_16275">
<rect width="5.72736" height="9.93397" fill="white" transform="translate(7.50244 7.41992)"/>
</clipPath>
</defs>
</svg>
