<svg width="663" height="530" viewBox="0 0 663 530" fill="none" xmlns="http://www.w3.org/2000/svg">
<g clip-path="url(#clip0_9194_12922)">
<path d="M687 465.765H-23V466.12H687V465.765Z" fill="#EBEBEB"/>
<path d="M615.858 488.651H568.827V489.007H615.858V488.651Z" fill="#EBEBEB"/>
<path d="M447.332 492.52H434.992V492.875H447.332V492.52Z" fill="#EBEBEB"/>
<path d="M567.408 475.451H540.158V475.807H567.408V475.451Z" fill="#EBEBEB"/>
<path d="M112.823 477.841H51.4932V478.196H112.823V477.841Z" fill="#EBEBEB"/>
<path d="M134.464 477.841H125.476V478.196H134.464V477.841Z" fill="#EBEBEB"/>
<path d="M296.713 483.843H163.688V484.198H296.713V483.843Z" fill="#EBEBEB"/>
<path d="M313.554 402.326H39.3523C34.8793 402.326 31.2441 398.684 31.2441 394.204V8.1219C31.2441 3.64134 34.8793 0 39.3523 0H313.554C318.027 0 321.663 3.64134 321.663 8.1219V394.204C321.663 398.684 318.027 402.326 313.554 402.326ZM39.3523 0.3556C35.0781 0.3556 31.5991 3.84048 31.5991 8.1219V394.204C31.5991 398.485 35.0781 401.97 39.3523 401.97H313.554C317.829 401.97 321.308 398.485 321.308 394.204V8.1219C321.308 3.84048 317.829 0.3556 313.554 0.3556H39.3523Z" fill="#EBEBEB"/>
<path d="M620.7 402.326H346.498C342.025 402.326 338.39 398.684 338.39 394.204V8.1219C338.39 3.64134 342.025 0 346.498 0H620.7C625.173 0 628.808 3.64134 628.808 8.1219V394.204C628.808 398.684 625.173 402.326 620.7 402.326ZM346.498 0.3556C342.224 0.3556 338.745 3.84048 338.745 8.1219V394.204C338.745 398.485 342.224 401.97 346.498 401.97H620.7C624.974 401.97 628.453 398.485 628.453 394.204V8.1219C628.453 3.84048 624.974 0.3556 620.7 0.3556H346.498Z" fill="#EBEBEB"/>
<path d="M416.583 121.3L400.721 127.118L416.583 132.893V138.852L393.905 130.218V124.017L416.583 115.383V121.3Z" fill="#263238"/>
<path d="M433.651 103.634H440.268L424.549 148.582H417.932L433.651 103.634Z" fill="#263238"/>
<path d="M463.826 124.017V130.218L441.148 138.852V132.893L457.01 127.118L441.148 121.3V115.383L463.826 124.017Z" fill="#263238"/>
<path d="M137.233 425.467C139.505 426.164 140.541 427.601 140.541 431.015V438.952C140.541 441.285 141.734 442.622 144.148 442.622H145.043V448.667H142.174C135.983 448.667 132.816 445.495 132.816 439.791V430.816C132.816 429.237 131.979 428.483 130.644 428.483H129.011V422.438H130.644C131.979 422.438 132.816 421.698 132.816 420.105V411.13C132.816 405.426 135.983 402.254 142.174 402.254H145.043V408.299H144.148C141.72 408.299 140.541 409.636 140.541 411.969V419.906C140.541 423.32 139.505 424.756 137.233 425.453V425.467Z" fill="#E0E0E0"/>
<path d="M176.595 422.452V428.497H174.962C173.627 428.497 172.79 429.237 172.79 430.83V439.805C172.79 445.509 169.623 448.681 163.432 448.681H160.563V442.636H161.458C163.886 442.636 165.065 441.299 165.065 438.966V431.029C165.065 427.615 166.101 426.179 168.373 425.482C166.101 424.785 165.065 423.348 165.065 419.934V411.997C165.065 409.664 163.872 408.327 161.458 408.327H160.563V402.282H163.432C169.623 402.282 172.79 405.454 172.79 411.158V420.133C172.79 421.712 173.627 422.466 174.962 422.466H176.595V422.452Z" fill="#E0E0E0"/>
<path d="M332 530C484.057 530 607.323 522.791 607.323 513.898C607.323 505.006 484.057 497.797 332 497.797C179.942 497.797 56.6758 505.006 56.6758 513.898C56.6758 522.791 179.942 530 332 530Z" fill="#BEC8EB"/>
<path d="M137.829 186.988H97.0328C90.089 186.988 84.4658 192.621 84.4658 199.576V235.136C84.4658 242.092 90.089 247.725 97.0328 247.725H125.958L134.478 258.947V247.725H137.829C144.773 247.725 150.396 242.092 150.396 235.136V199.576C150.396 192.621 144.773 186.988 137.829 186.988Z" fill="#384C6B"/>
<path opacity="0.7" d="M137.829 186.988H97.0328C90.089 186.988 84.4658 192.621 84.4658 199.576V235.136C84.4658 242.092 90.089 247.725 97.0328 247.725H125.958L134.478 258.947V247.725H137.829C144.773 247.725 150.396 242.092 150.396 235.136V199.576C150.396 192.621 144.773 186.988 137.829 186.988Z" fill="white"/>
<path d="M131.754 231.547C139.662 223.625 139.662 210.783 131.754 202.862C123.846 194.94 111.025 194.94 103.117 202.862C95.2094 210.783 95.2094 223.625 103.117 231.547C111.025 239.468 123.846 239.468 131.754 231.547Z" fill="#384C6B"/>
<path d="M115.309 226.261C114.769 226.261 114.244 226.019 113.889 225.607L105.951 216.233C105.283 215.451 105.383 214.27 106.164 213.601C106.945 212.933 108.123 213.033 108.791 213.815L115.323 221.51L126.101 208.794C126.768 208.011 127.947 207.912 128.728 208.58C129.509 209.249 129.608 210.43 128.941 211.212L116.743 225.607C116.388 226.019 115.877 226.261 115.323 226.261H115.309Z" fill="white"/>
<path d="M267.702 438.853L298.175 437.359L295.207 463.916C295.207 463.916 274.049 467.969 264.606 452.878L267.688 438.853H267.702Z" fill="#EBB376"/>
<path d="M317.842 446.605L310.898 465.878L295.222 463.915L298.189 437.345L317.842 446.605Z" fill="#EBB376"/>
<path d="M238.436 481.951C256.64 472.762 269.789 458.624 269.789 458.624L267.716 438.838C238.904 443.048 222.29 449.207 222.29 449.207C222.29 449.207 232.954 410.86 223.199 396.892L196.375 401.756C196.375 401.756 167.876 461.099 187.046 481.923H238.45L238.436 481.951Z" fill="#384C6B"/>
<path opacity="0.7" d="M238.393 481.951C256.612 472.777 269.775 458.638 269.775 458.638L267.702 438.838C239.813 442.935 223.327 448.823 222.319 449.179C222.674 447.785 232.77 410.618 223.199 396.892L196.39 401.77C196.39 401.77 187.912 419.394 183.312 438.838C179.478 455.039 178.356 472.478 187.075 481.951H238.408H238.393Z" fill="white"/>
<path opacity="0.2" d="M216.341 481.951C225.812 421.826 217.406 406.578 217.406 406.578L183.283 438.838C179.449 455.039 178.327 472.478 187.046 481.951H216.327H216.341Z" fill="black"/>
<path d="M210.42 481.951C216.81 451.569 223.981 403.99 223.186 396.906C222.035 386.622 166.116 342.485 117.594 374.617C107.683 381.174 102.585 451.91 100.853 481.951H210.42Z" fill="#384C6B"/>
<path opacity="0.7" d="M210.42 481.951C216.81 451.555 223.981 403.99 223.2 396.892C222.064 386.622 166.13 342.499 117.608 374.617C114.002 377.021 111.048 387.888 108.62 402.226C105.368 421.741 103.139 447.643 101.804 467.187C101.435 472.72 101.122 477.727 100.881 481.951H210.434H210.42Z" fill="white"/>
<path d="M186.464 244.069C169.637 237.256 129.962 261.707 126.483 305.304C123.004 348.9 145.071 336.81 145.071 336.81C145.071 336.81 148.99 353.452 165.065 348.303C165.065 348.303 178.342 363.366 190.696 357.235C190.696 357.235 206.074 373.28 214.325 364.817C214.325 364.817 223.299 375.086 231.492 367.306C239.686 359.525 263.087 280.255 226.352 261.92C189.617 243.586 186.45 244.055 186.45 244.055L186.464 244.069Z" fill="#263238"/>
<path d="M186.492 422.466L184.874 422.324C186.734 401.33 182.133 392.041 182.076 391.942L183.525 391.202C183.723 391.586 188.409 400.931 186.492 422.466Z" fill="#263238"/>
<path d="M194.103 422.709C182.971 396.394 195.495 390.278 196.035 390.036L196.716 391.515C196.603 391.572 185.129 397.333 195.609 422.083L194.118 422.723L194.103 422.709Z" fill="#263238"/>
<path d="M183.212 396.266C183.212 396.266 161.699 379.226 128.301 369.582L117.594 374.617C117.594 374.617 99.6165 352.328 129.579 345.031C159.541 337.749 200.295 357.79 210.533 375.044C220.771 392.298 192.754 397.774 192.754 397.774C192.754 397.774 190.142 394.318 183.198 396.266H183.212Z" fill="#384C6B"/>
<path opacity="0.6" d="M183.212 396.266C183.212 396.266 161.699 379.226 128.301 369.582L117.594 374.617C117.594 374.617 99.6165 352.328 129.579 345.031C159.541 337.749 200.295 357.79 210.533 375.044C220.771 392.298 192.754 397.774 192.754 397.774C192.754 397.774 190.142 394.318 183.198 396.266H183.212Z" fill="white"/>
<path d="M196.191 422.396C196.191 423.178 195.552 423.818 194.771 423.818C193.99 423.818 193.351 423.178 193.351 422.396C193.351 421.614 193.99 420.974 194.771 420.974C195.552 420.974 196.191 421.614 196.191 422.396Z" fill="white"/>
<path d="M186.975 422.396C186.975 423.178 186.336 423.818 185.555 423.818C184.774 423.818 184.135 423.178 184.135 422.396C184.135 421.614 184.774 420.974 185.555 420.974C186.336 420.974 186.975 421.614 186.975 422.396Z" fill="white"/>
<path d="M171.781 315.787C170.475 331.063 165.803 358.217 153.406 364.191C153.406 364.191 167.265 367.021 188.878 394.502C201.189 385.84 196.532 379.951 196.532 379.951C182.133 370.492 185.867 358.828 191.689 348.715L171.781 315.772V315.787Z" fill="#EBB376"/>
<path opacity="0.2" d="M179.889 329.229L191.675 348.715C190.283 351.105 189.034 353.58 188.125 356.112C182.459 353.068 176.225 343.424 177.39 336.824C177.972 333.538 178.966 330.523 179.889 329.229Z" fill="black"/>
<path d="M170.091 283.555C166.13 307.537 163.943 317.579 172.818 333.026C186.152 356.254 215.702 357.349 226.565 335.387C236.349 315.616 241.191 279.715 220.8 263.869C200.707 248.251 174.067 259.588 170.106 283.569L170.091 283.555Z" fill="#EBB376"/>
<path d="M219.152 250.499C234.659 259.133 249.441 286.073 227.36 279.331C224.037 285.803 212.137 279.871 205.236 272.105C204.072 277.496 191.335 282.901 181.977 274.552C186.507 281.095 178.796 297.609 170.773 294.764C162.736 291.919 144.744 288.178 160.705 262.717C176.666 237.256 202.581 241.282 219.166 250.499H219.152Z" fill="#263238"/>
<path d="M213.501 306.2C213.501 306.2 214.935 315.73 217.619 320.894C214.58 322.643 210.533 320.296 210.533 320.296L213.487 306.2H213.501Z" fill="#D58745"/>
<path d="M198.023 324.563C198.974 325.033 200.011 325.431 201.161 325.758C201.473 325.843 201.772 325.658 201.843 325.331C201.914 325.004 201.729 324.677 201.402 324.592C193.039 322.216 190.412 314.976 190.383 314.905C190.27 314.578 189.943 314.407 189.645 314.507C189.347 314.606 189.205 314.948 189.304 315.275C189.403 315.559 191.519 321.391 198.009 324.563H198.023Z" fill="#263238"/>
<path d="M158.036 300.795C159.541 306.328 163.247 310.51 167.095 312.629C172.875 315.801 177.106 310.368 176.609 303.597C176.169 297.509 172.619 288.52 166.272 288.164C160.024 287.808 156.303 294.479 158.036 300.795Z" fill="#EBB376"/>
<path d="M196.39 284.21C196.674 284.323 197 284.309 197.284 284.167C201.757 281.763 205.506 283.996 205.549 284.025C206.102 284.352 206.798 284.181 207.096 283.598C207.395 283.015 207.182 282.275 206.614 281.934C206.415 281.82 201.715 279.004 196.162 281.991C195.609 282.289 195.41 283.015 195.722 283.626C195.864 283.911 196.106 284.124 196.375 284.224L196.39 284.21Z" fill="#263238"/>
<path d="M234.545 293.584C234.8 293.726 235.113 293.769 235.397 293.669C235.993 293.484 236.32 292.801 236.107 292.161C234.048 285.704 228.936 283.997 228.709 283.94C228.098 283.741 227.473 284.11 227.317 284.751C227.161 285.391 227.53 286.073 228.141 286.272C228.339 286.344 232.301 287.709 233.934 292.858C234.034 293.185 234.261 293.456 234.545 293.598V293.584Z" fill="#263238"/>
<path d="M204.029 299.913C203.333 301.805 201.743 302.971 200.479 302.502C199.215 302.032 198.761 300.126 199.457 298.235C200.152 296.343 201.743 295.176 202.992 295.646C204.256 296.115 204.711 298.021 204.015 299.913H204.029Z" fill="#263238"/>
<path d="M202.438 295.546L207.153 295.446C207.153 295.446 203.83 298.163 202.438 295.546Z" fill="#263238"/>
<path d="M227.871 307.48C227.175 309.372 225.585 310.539 224.321 310.069C223.057 309.6 222.603 307.694 223.298 305.802C223.994 303.91 225.585 302.744 226.834 303.213C228.098 303.683 228.552 305.589 227.857 307.48H227.871Z" fill="#263238"/>
<path d="M226.295 303.113L231.009 303.014C231.009 303.014 227.687 305.73 226.295 303.113Z" fill="#263238"/>
<path d="M201.785 313.355C200.337 313.355 198.903 313.056 197.554 312.459C194.728 311.193 192.641 308.746 191.661 305.574C190.709 302.445 190.951 298.96 192.371 295.788C193.791 292.616 196.205 290.098 199.173 288.719C202.183 287.325 205.392 287.254 208.232 288.52C211.058 289.786 213.145 292.232 214.125 295.404C215.077 298.533 214.835 302.018 213.415 305.19C211.995 308.362 209.581 310.88 206.613 312.259C205.037 312.985 203.39 313.355 201.785 313.355ZM204.015 289.231C202.637 289.231 201.232 289.544 199.868 290.184C197.256 291.393 195.126 293.612 193.862 296.442C192.598 299.259 192.371 302.331 193.223 305.091C194.046 307.807 195.836 309.898 198.221 310.965C200.607 312.032 203.347 311.975 205.932 310.78C208.545 309.571 210.675 307.352 211.938 304.522C213.202 301.705 213.429 298.633 212.577 295.873C211.754 293.157 209.965 291.066 207.579 289.999C206.443 289.487 205.25 289.245 204.015 289.245V289.231Z" fill="#263238"/>
<path d="M225.414 320.609C223.98 320.609 222.56 320.324 221.211 319.712C218.385 318.447 216.298 316 215.318 312.828C214.367 309.685 214.608 306.214 216.028 303.042C217.448 299.87 219.862 297.352 222.83 295.973C225.84 294.579 229.049 294.508 231.889 295.774C234.715 297.039 236.803 299.486 237.782 302.658C238.734 305.801 238.492 309.272 237.072 312.444C234.815 317.508 230.1 320.594 225.414 320.594V320.609ZM227.672 296.485C226.295 296.485 224.889 296.798 223.526 297.438C220.913 298.647 218.783 300.866 217.519 303.696C216.255 306.513 216.028 309.585 216.88 312.344C217.704 315.061 219.493 317.152 221.878 318.219C226.863 320.452 233.011 317.565 235.596 311.775C236.859 308.959 237.087 305.887 236.235 303.127C235.397 300.411 233.622 298.32 231.236 297.253C230.114 296.741 228.907 296.499 227.672 296.499V296.485Z" fill="#263238"/>
<path d="M215.275 305.773C215.148 305.46 214.991 305.375 214.849 305.318C214.281 305.09 213.316 305.446 213.018 305.588L212.308 304.123C212.492 304.038 214.097 303.284 215.432 303.796C216.056 304.038 216.525 304.507 216.781 305.176L215.275 305.773Z" fill="#263238"/>
<path d="M173.874 290.191L173.395 291.74L192.518 297.681L192.998 296.132L173.874 290.191Z" fill="#263238"/>
<path opacity="0.2" d="M171.937 440.232C171.937 440.232 134.577 468.908 101.789 467.187C103.124 447.643 105.353 421.727 108.605 402.226C111.942 398.513 114.157 396.28 114.157 396.28L134.094 411.173L129.252 417.246C129.252 417.246 159.342 415.724 169.821 417.246L171.937 440.232Z" fill="black"/>
<path d="M175.8 417.26L205.705 411.158L206.784 437.857C206.784 437.857 186.478 445.068 174.877 431.584L175.8 417.246V417.26Z" fill="#EBB376"/>
<path d="M226.522 417.331L222.575 437.43L206.77 437.857L205.705 411.158L226.522 417.331Z" fill="#EBB376"/>
<path d="M175.8 417.261L177.262 437.857L169.821 441.2L166.641 417.261H175.8Z" fill="#384C6B"/>
<path opacity="0.6" d="M175.8 417.261L177.262 437.857L169.821 441.2L166.641 417.261H175.8Z" fill="white"/>
<path d="M128.301 369.582C128.301 369.582 116.813 370.862 107.782 381.473C98.7649 392.084 66.9711 423.604 74.0427 449.321C81.1143 475.038 149.061 455.907 169.822 441.199L166.641 417.246L119.568 420.703L134.08 411.144C144.035 383.393 128.301 369.567 128.301 369.567V369.582Z" fill="#384C6B"/>
<path opacity="0.7" d="M128.301 369.582C128.301 369.582 116.813 370.862 107.782 381.473C98.7649 392.084 66.9711 423.604 74.0427 449.321C81.1143 475.038 149.061 455.907 169.822 441.199L166.641 417.246L119.568 420.703L134.08 411.144C144.035 383.393 128.301 369.567 128.301 369.567V369.582Z" fill="white"/>
<path d="M264.621 439.307L273.198 437.856V460.857L266.41 461.966L264.621 439.307Z" fill="#384C6B"/>
<path opacity="0.6" d="M264.621 439.307L273.198 437.856V460.857L266.41 461.966L264.621 439.307Z" fill="white"/>
<path d="M247.325 460.63C247.311 459.378 247.354 458.069 247.51 456.86L247.765 454.968L245.934 456.049L244.84 456.69C244.457 456.818 244.102 457.031 243.733 457.116C242.994 457.344 242.327 457.344 241.745 457.159C241.162 456.96 240.637 456.547 240.154 456.007C239.7 455.466 239.26 454.698 239.032 454.072L237.428 449.592L236.292 454.328C236.178 454.798 236.107 455.281 236.008 455.751C235.894 456.206 235.738 456.633 235.61 457.074C235.241 457.856 234.815 458.539 234.29 458.88C233.764 459.236 233.012 459.25 232.145 459.065C231.293 458.88 230.37 458.425 229.604 457.941L227.133 456.405L228.141 458.923C228.553 459.961 228.894 461.099 229.163 462.223C229.277 462.792 229.376 463.361 229.391 463.93C229.391 464.499 229.376 465.096 229.021 465.608C229.533 465.252 229.831 464.627 229.987 464.015C230.157 463.403 230.228 462.763 230.243 462.137C230.257 461.64 230.228 461.142 230.186 460.644C230.583 460.871 231.009 461.085 231.464 461.27C232.6 461.725 234.148 461.867 235.511 461.184C236.888 460.502 237.627 459.278 238.166 458.169C238.18 458.112 238.209 458.041 238.237 457.984C238.961 458.766 239.941 459.435 241.091 459.691C242.298 459.961 243.562 459.805 244.556 459.335C244.996 459.165 245.366 458.909 245.763 458.681C245.763 458.738 245.763 458.78 245.777 458.837C245.863 459.506 246.005 460.174 246.189 460.829C246.36 461.483 246.587 462.137 246.899 462.749C247.197 463.361 247.595 463.944 248.135 464.356C247.765 463.802 247.638 463.162 247.51 462.55C247.41 461.924 247.354 461.298 247.339 460.658L247.325 460.63Z" fill="#384C6B"/>
<path d="M298.118 428.54C297.181 428.668 295.917 428.54 294.838 428.199C293.759 427.858 292.595 427.317 291.743 426.705C290.848 426.065 290.081 425.226 289.456 424.245C288.832 423.306 288.264 422.182 287.937 421.186L287 418.37L285.409 420.888C284.77 421.898 283.862 422.936 282.967 423.718C282.058 424.515 281.022 425.041 280.113 425.013H279.772C279.644 424.97 279.488 424.942 279.346 424.913C279.048 424.87 278.764 424.771 278.466 424.686C277.883 424.501 277.315 424.245 276.747 423.946C275.654 423.348 274.561 422.509 273.68 421.67L271.209 419.295L271.721 422.552C271.99 424.259 272.147 426.094 272.061 427.815C272.005 428.668 271.877 429.536 271.564 430.233C271.252 430.944 270.67 431.3 269.832 431.229L269.179 431.172L269.378 431.698C269.789 432.765 270.215 433.832 270.656 434.884C270.514 433.931 270.357 432.992 270.201 432.054L270.457 432.096C270.727 432.096 271.025 432.011 271.309 431.954C271.564 431.84 271.82 431.67 272.061 431.499C272.246 431.3 272.445 431.086 272.615 430.873C273.24 429.977 273.467 428.981 273.68 428.028C273.865 427.061 273.964 426.108 273.993 425.155C273.993 425.141 273.993 425.126 273.993 425.112C274.461 425.482 274.944 425.838 275.455 426.151C276.123 426.549 276.818 426.919 277.557 427.203C278.338 427.473 279.005 427.715 280.013 427.758C281.945 427.815 283.549 426.876 284.756 425.866C285.338 425.383 285.835 424.87 286.304 424.33C286.574 424.828 286.872 425.311 287.227 425.781C288.065 426.919 289.101 427.957 290.337 428.754C291.615 429.564 292.893 429.977 294.27 430.29C295.165 430.446 296.045 430.546 296.982 430.489C296.869 430.788 296.741 431.072 296.642 431.357C296.4 432.182 296.187 433.007 296.059 433.86C295.903 434.699 295.889 435.581 295.946 436.435C296.017 437.288 296.23 438.156 296.698 438.853C296.4 438.07 296.443 437.231 296.528 436.435C296.627 435.638 296.812 434.856 297.082 434.102C297.593 432.58 298.331 431.143 299.141 429.764L300.035 428.242L298.09 428.512L298.118 428.54Z" fill="#384C6B"/>
<path d="M582.204 512.59L84.2099 512.59C80.7309 512.59 77.9052 509.759 77.9052 506.274V490.913L588.509 490.913V506.274C588.509 509.759 585.683 512.59 582.204 512.59Z" fill="#384C6B"/>
<path opacity="0.2" d="M77.891 501.751L588.509 501.751V490.912L77.891 490.912V501.751Z" fill="black"/>
<path d="M67.1982 493.743H599.23C602.595 493.743 605.321 491.012 605.321 487.641C605.321 484.27 602.595 481.539 599.23 481.539H67.1982C63.8328 481.539 61.1064 484.27 61.1064 487.641C61.1064 491.012 63.8328 493.743 67.1982 493.743Z" fill="#384C6B"/>
<path d="M563.162 406.934L547.627 477.514C547.116 479.832 544.858 481.525 542.586 481.525H457.741C455.483 481.525 454.035 479.42 454.56 477.087L470.066 407.048C470.592 404.744 472.835 403.592 475.107 403.592H559.952C562.239 403.592 563.659 404.63 563.162 406.934Z" fill="#263238"/>
<path opacity="0.4" d="M563.162 406.934L547.627 477.514C547.116 479.832 544.858 481.525 542.586 481.525H460.624C458.337 481.525 456.917 479.42 457.414 477.087L472.949 407.048C473.46 404.744 475.718 403.592 477.99 403.592H559.953C562.239 403.592 563.659 404.63 563.162 406.934Z" fill="white"/>
<path d="M549.629 479.292L565.078 409.068C565.59 406.764 564.155 405.726 561.869 405.726H479.907C477.621 405.726 475.363 406.878 474.866 409.182L459.175 480.202L549.629 479.292Z" fill="#384C6B"/>
<path opacity="0.4" d="M565.079 409.053L556.928 446.15L549.629 479.277L501.193 479.761L459.189 480.188L474.866 409.181C475.392 406.877 477.621 405.739 479.893 405.739H561.884C564.156 405.739 565.59 406.778 565.065 409.053H565.079Z" fill="white"/>
<path opacity="0.2" d="M556.928 446.165L549.629 479.292L501.193 479.776H460.979L467.553 449.479C467.979 447.53 469.697 446.15 471.671 446.15H556.914L556.928 446.165Z" fill="black"/>
<path d="M558.32 450.773C557.808 448.469 555.551 447.316 553.279 447.316H471.316C469.03 447.316 467.61 448.355 468.107 450.659L474.327 478.894H460.496C459.772 478.894 459.189 479.477 459.189 480.202C459.189 480.928 459.772 481.511 460.496 481.511H561.458C563.361 481.511 564.766 479.747 564.355 477.898L558.334 450.773H558.32Z" fill="#384C6B"/>
<path opacity="0.4" d="M558.32 450.773C557.808 448.469 555.551 447.316 553.279 447.316H471.316C469.03 447.316 467.61 448.355 468.107 450.659L474.327 478.894H460.496C459.772 478.894 459.189 479.477 459.189 480.202C459.189 480.928 459.772 481.511 460.496 481.511H561.458C563.361 481.511 564.766 479.747 564.355 477.898L558.334 450.773H558.32Z" fill="white"/>
<path d="M458.025 467.913H453.268L452.672 470.488H457.301L458.025 467.913Z" fill="black"/>
<path d="M427.964 481.852H414.261C413.806 481.852 413.451 481.482 413.451 481.041C413.451 480.6 413.82 480.23 414.261 480.23H427.964C432.536 480.23 436.81 478.182 439.693 474.612C442.874 470.658 447.602 468.382 452.686 468.382H455.1C455.554 468.382 455.909 468.752 455.909 469.193C455.909 469.634 455.54 470.003 455.1 470.003H452.686C448.113 470.003 443.839 472.052 440.957 475.622C437.776 479.576 433.047 481.852 427.964 481.852Z" fill="black"/>
<path d="M199.628 471.81V477.755C199.628 480.429 202.851 481.525 205.521 481.525H413.665C416.306 481.525 419.444 480.429 419.444 477.755V471.81H199.628Z" fill="#263238"/>
<path opacity="0.4" d="M199.628 471.81V477.755C199.628 480.429 202.851 481.525 205.521 481.525H413.665C416.306 481.525 419.444 480.429 419.444 477.755V471.81H199.628Z" fill="white"/>
<path opacity="0.2" d="M270.543 471.81V477.755C270.543 480.429 273.709 481.525 276.379 481.525H413.664C416.306 481.525 419.444 480.429 419.444 477.755V471.81H270.528H270.543Z" fill="black"/>
<path d="M454.277 358.985L429.498 471.568C428.689 475.28 425.096 477.968 421.447 477.968H286.092C282.485 477.968 280.171 474.597 281.009 470.899L305.759 359.17C306.597 355.5 310.161 353.665 313.811 353.665H449.165C452.8 353.665 455.086 355.315 454.277 358.985Z" fill="#263238"/>
<path opacity="0.4" d="M454.277 358.985L429.498 471.568C428.688 475.28 425.096 477.968 421.446 477.968H290.693C287.058 477.968 284.771 474.597 285.581 470.899L310.36 359.17C311.169 355.5 314.762 353.665 318.411 353.665H449.165C452.8 353.665 455.086 355.315 454.277 358.985Z" fill="white"/>
<path opacity="0.2" d="M387.537 416.208V416.236C387.537 425.88 377.213 433.704 369.659 433.704C362.104 433.704 357.617 425.866 359.776 416.236C361.934 406.792 369.46 399.082 376.858 398.798C374.7 408.442 379.315 416.236 386.855 416.236C387.011 416.236 387.551 416.236 387.551 416.208H387.537Z" fill="black"/>
<path d="M346.849 58.0924C346.849 53.9096 343.652 50.5176 339.709 50.5176H171.439C167.496 50.5176 164.299 53.9096 164.299 58.0924V70.2778H346.849V58.0924Z" fill="#6F82A2"/>
<path d="M218.439 70.2773H164.299V185.787C164.299 192.819 169.999 198.518 177.031 198.518H334.118C341.15 198.518 346.849 192.817 346.849 185.787V70.2773H218.438H218.439Z" fill="#A6B8D9"/>
<g opacity="0.2">
<path d="M261.049 90.213H229.355C228.574 90.213 227.935 89.5729 227.935 88.7906C227.935 88.0082 228.574 87.3682 229.355 87.3682H261.049C261.83 87.3682 262.469 88.0082 262.469 88.7906C262.469 89.5729 261.83 90.213 261.049 90.213Z" fill="black"/>
<path d="M330.984 90.213H269.47C268.689 90.213 268.05 89.5729 268.05 88.7906C268.05 88.0082 268.689 87.3682 269.47 87.3682H330.984C331.765 87.3682 332.404 88.0082 332.404 88.7906C332.404 89.5729 331.765 90.213 330.984 90.213Z" fill="black"/>
<path d="M316.387 99.4874H233.629C232.848 99.4874 232.209 98.8473 232.209 98.065C232.209 97.2827 232.848 96.6426 233.629 96.6426H316.387C317.168 96.6426 317.807 97.2827 317.807 98.065C317.807 98.8473 317.168 99.4874 316.387 99.4874Z" fill="black"/>
<path d="M282.676 108.775H229.355C228.574 108.775 227.935 108.135 227.935 107.353C227.935 106.571 228.574 105.931 229.355 105.931H282.676C283.457 105.931 284.096 106.571 284.096 107.353C284.096 108.135 283.457 108.775 282.676 108.775Z" fill="black"/>
<path d="M330.984 108.775H292.786C292.005 108.775 291.366 108.135 291.366 107.353C291.366 106.571 292.005 105.931 292.786 105.931H330.984C331.765 105.931 332.404 106.571 332.404 107.353C332.404 108.135 331.765 108.775 330.984 108.775Z" fill="black"/>
<path d="M258.806 118.064H229.369C228.588 118.064 227.949 117.423 227.949 116.641C227.949 115.859 228.588 115.219 229.369 115.219H258.806C259.587 115.219 260.226 115.859 260.226 116.641C260.226 117.423 259.587 118.064 258.806 118.064Z" fill="black"/>
<path d="M314.697 118.064H268.348C267.567 118.064 266.928 117.423 266.928 116.641C266.928 115.859 267.567 115.219 268.348 115.219H314.697C315.478 115.219 316.117 115.859 316.117 116.641C316.117 117.423 315.478 118.064 314.697 118.064Z" fill="black"/>
<path d="M273.233 127.352H233.629C232.848 127.352 232.209 126.712 232.209 125.929C232.209 125.147 232.848 124.507 233.629 124.507H273.233C274.014 124.507 274.653 125.147 274.653 125.929C274.653 126.712 274.014 127.352 273.233 127.352Z" fill="black"/>
<path d="M278.189 136.626H233.629C232.848 136.626 232.209 135.986 232.209 135.204C232.209 134.421 232.848 133.781 233.629 133.781H278.189C278.97 133.781 279.609 134.421 279.609 135.204C279.609 135.986 278.97 136.626 278.189 136.626Z" fill="black"/>
<path d="M330.984 136.626H285.487C284.706 136.626 284.067 135.986 284.067 135.204C284.067 134.421 284.706 133.781 285.487 133.781H330.984C331.765 133.781 332.404 134.421 332.404 135.204C332.404 135.986 331.765 136.626 330.984 136.626Z" fill="black"/>
<path d="M254.872 145.914H229.355C228.574 145.914 227.935 145.274 227.935 144.492C227.935 143.709 228.574 143.069 229.355 143.069H254.872C255.653 143.069 256.292 143.709 256.292 144.492C256.292 145.274 255.653 145.914 254.872 145.914Z" fill="black"/>
<path d="M330.984 145.914H263.576C262.795 145.914 262.156 145.274 262.156 144.492C262.156 143.709 262.795 143.069 263.576 143.069H330.984C331.765 143.069 332.404 143.709 332.404 144.492C332.404 145.274 331.765 145.914 330.984 145.914Z" fill="black"/>
<path d="M277.905 155.202H233.629C232.848 155.202 232.209 154.562 232.209 153.78C232.209 152.998 232.848 152.357 233.629 152.357H277.905C278.686 152.357 279.325 152.998 279.325 153.78C279.325 154.562 278.686 155.202 277.905 155.202Z" fill="black"/>
<path d="M312.737 155.202H284.081C283.3 155.202 282.661 154.562 282.661 153.78C282.661 152.998 283.3 152.357 284.081 152.357H312.737C313.518 152.357 314.157 152.998 314.157 153.78C314.157 154.562 313.518 155.202 312.737 155.202Z" fill="black"/>
<path d="M284.593 164.49H233.629C232.848 164.49 232.209 163.85 232.209 163.068C232.209 162.286 232.848 161.646 233.629 161.646H284.593C285.374 161.646 286.013 162.286 286.013 163.068C286.013 163.85 285.374 164.49 284.593 164.49Z" fill="black"/>
</g>
<g opacity="0.2">
<path d="M178.429 90.2139H178.358C177.577 90.2139 176.938 89.5739 176.938 88.7915C176.938 88.0092 177.577 87.3691 178.358 87.3691C179.139 87.3691 179.807 88.0092 179.807 88.7915C179.807 89.5739 179.21 90.2139 178.415 90.2139H178.429Z" fill="black"/>
<path d="M178.429 99.4884H178.358C177.577 99.4884 176.938 98.8483 176.938 98.066C176.938 97.2836 177.577 96.6436 178.358 96.6436C179.139 96.6436 179.807 97.2836 179.807 98.066C179.807 98.8483 179.21 99.4884 178.415 99.4884H178.429Z" fill="black"/>
<path d="M178.429 108.776H178.358C177.577 108.776 176.938 108.136 176.938 107.354C176.938 106.572 177.577 105.932 178.358 105.932C179.139 105.932 179.807 106.572 179.807 107.354C179.807 108.136 179.21 108.776 178.415 108.776H178.429Z" fill="black"/>
<path d="M178.429 118.065H178.358C177.577 118.065 176.938 117.424 176.938 116.642C176.938 115.86 177.577 115.22 178.358 115.22C179.139 115.22 179.807 115.86 179.807 116.642C179.807 117.424 179.21 118.065 178.415 118.065H178.429Z" fill="black"/>
<path d="M178.429 127.353H178.358C177.577 127.353 176.938 126.713 176.938 125.93C176.938 125.148 177.577 124.508 178.358 124.508C179.139 124.508 179.807 125.148 179.807 125.93C179.807 126.713 179.21 127.353 178.415 127.353H178.429Z" fill="black"/>
<path d="M178.429 136.627H178.358C177.577 136.627 176.938 135.987 176.938 135.205C176.938 134.422 177.577 133.782 178.358 133.782C179.139 133.782 179.807 134.422 179.807 135.205C179.807 135.987 179.21 136.627 178.415 136.627H178.429Z" fill="black"/>
<path d="M178.429 145.915H178.358C177.577 145.915 176.938 145.275 176.938 144.493C176.938 143.71 177.577 143.07 178.358 143.07C179.139 143.07 179.807 143.71 179.807 144.493C179.807 145.275 179.21 145.915 178.415 145.915H178.429Z" fill="black"/>
<path d="M178.429 155.203H178.358C177.577 155.203 176.938 154.563 176.938 153.781C176.938 152.998 177.577 152.358 178.358 152.358C179.139 152.358 179.807 152.998 179.807 153.781C179.807 154.563 179.21 155.203 178.415 155.203H178.429Z" fill="black"/>
<path d="M178.429 164.491H178.358C177.577 164.491 176.938 163.851 176.938 163.069C176.938 162.287 177.577 161.646 178.358 161.646C179.139 161.646 179.807 162.287 179.807 163.069C179.807 163.851 179.21 164.491 178.415 164.491H178.429Z" fill="black"/>
</g>
<path d="M175.823 63.106C174.405 63.106 173.25 61.9524 173.25 60.5325C173.25 59.1126 174.404 57.959 175.823 57.959C177.243 57.959 178.397 59.1139 178.397 60.5325C178.397 61.951 177.242 63.106 175.823 63.106ZM175.823 58.9524C174.952 58.9524 174.243 59.6623 174.243 60.5338C174.243 61.4053 174.952 62.1139 175.823 62.1139C176.695 62.1139 177.405 61.4053 177.405 60.5338C177.405 59.6623 176.695 58.9524 175.823 58.9524Z" fill="white"/>
<path d="M183.548 63.106C182.13 63.106 180.975 61.9524 180.975 60.5325C180.975 59.1126 182.13 57.959 183.548 57.959C184.967 57.959 186.122 59.1139 186.122 60.5325C186.122 61.951 184.968 63.106 183.548 63.106ZM183.548 58.9524C182.677 58.9524 181.967 59.6623 181.967 60.5338C181.967 61.4053 182.677 62.1139 183.548 62.1139C184.42 62.1139 185.128 61.4053 185.128 60.5338C185.128 59.6623 184.42 58.9524 183.548 58.9524Z" fill="white"/>
<path d="M191.271 63.106C189.852 63.106 188.697 61.9524 188.697 60.5325C188.697 59.1126 189.851 57.959 191.271 57.959C192.691 57.959 193.844 59.1139 193.844 60.5325C193.844 61.951 192.689 63.106 191.271 63.106ZM191.271 58.9524C190.399 58.9524 189.691 59.6623 189.691 60.5338C189.691 61.4053 190.399 62.1139 191.271 62.1139C192.142 62.1139 192.852 61.4053 192.852 60.5338C192.852 59.6623 192.142 58.9524 191.271 58.9524Z" fill="white"/>
<g opacity="0.2">
<path d="M201.569 90.2139H186.119C185.338 90.2139 184.699 89.5739 184.699 88.7915C184.699 88.0092 185.338 87.3691 186.119 87.3691H201.569C202.35 87.3691 202.989 88.0092 202.989 88.7915C202.989 89.5739 202.35 90.2139 201.569 90.2139Z" fill="black"/>
<path d="M201.569 99.502H186.119C185.338 99.502 184.699 98.8619 184.699 98.0796C184.699 97.2973 185.338 96.6572 186.119 96.6572H201.569C202.35 96.6572 202.989 97.2973 202.989 98.0796C202.989 98.8619 202.35 99.502 201.569 99.502Z" fill="black"/>
<path d="M201.569 108.79H186.119C185.338 108.79 184.699 108.15 184.699 107.368C184.699 106.585 185.338 105.945 186.119 105.945H201.569C202.35 105.945 202.989 106.585 202.989 107.368C202.989 108.15 202.35 108.79 201.569 108.79Z" fill="black"/>
<path d="M201.569 118.079H186.119C185.338 118.079 184.699 117.439 184.699 116.657C184.699 115.874 185.338 115.234 186.119 115.234H201.569C202.35 115.234 202.989 115.874 202.989 116.657C202.989 117.439 202.35 118.079 201.569 118.079Z" fill="black"/>
<path d="M201.569 127.353H186.119C185.338 127.353 184.699 126.713 184.699 125.93C184.699 125.148 185.338 124.508 186.119 124.508H201.569C202.35 124.508 202.989 125.148 202.989 125.93C202.989 126.713 202.35 127.353 201.569 127.353Z" fill="black"/>
<path d="M201.569 136.641H186.119C185.338 136.641 184.699 136.001 184.699 135.218C184.699 134.436 185.338 133.796 186.119 133.796H201.569C202.35 133.796 202.989 134.436 202.989 135.218C202.989 136.001 202.35 136.641 201.569 136.641Z" fill="black"/>
<path d="M201.569 145.93H186.119C185.338 145.93 184.699 145.29 184.699 144.507C184.699 143.725 185.338 143.085 186.119 143.085H201.569C202.35 143.085 202.989 143.725 202.989 144.507C202.989 145.29 202.35 145.93 201.569 145.93Z" fill="black"/>
<path d="M201.569 155.218H186.119C185.338 155.218 184.699 154.578 184.699 153.795C184.699 153.013 185.338 152.373 186.119 152.373H201.569C202.35 152.373 202.989 153.013 202.989 153.795C202.989 154.578 202.35 155.218 201.569 155.218Z" fill="black"/>
<path d="M201.569 164.491H186.119C185.338 164.491 184.699 163.851 184.699 163.069C184.699 162.287 185.338 161.646 186.119 161.646H201.569C202.35 161.646 202.989 162.287 202.989 163.069C202.989 163.851 202.35 164.491 201.569 164.491Z" fill="black"/>
</g>
<path d="M511.781 179.95C511.781 175.641 508.172 172.148 503.72 172.148H313.759C309.307 172.148 305.698 175.641 305.698 179.95V192.499H511.781V179.95Z" fill="#6F82A2"/>
<path d="M511.782 192.499V309.916C511.782 315.821 506.749 320.609 500.541 320.609H316.941C310.733 320.609 305.7 315.822 305.7 309.916V192.499H511.783H511.782Z" fill="#A6B8D9"/>
<g opacity="0.2">
<path d="M332.326 213.171H316.876C316.095 213.171 315.456 212.531 315.456 211.749C315.456 210.966 316.095 210.326 316.876 210.326H332.326C333.107 210.326 333.746 210.966 333.746 211.749C333.746 212.531 333.107 213.171 332.326 213.171Z" fill="black"/>
<path d="M332.326 222.459H316.876C316.095 222.459 315.456 221.819 315.456 221.037C315.456 220.254 316.095 219.614 316.876 219.614H332.326C333.107 219.614 333.746 220.254 333.746 221.037C333.746 221.819 333.107 222.459 332.326 222.459Z" fill="black"/>
<path d="M332.326 231.747H316.876C316.095 231.747 315.456 231.107 315.456 230.325C315.456 229.542 316.095 228.902 316.876 228.902H332.326C333.107 228.902 333.746 229.542 333.746 230.325C333.746 231.107 333.107 231.747 332.326 231.747Z" fill="black"/>
<path d="M332.326 241.036H316.876C316.095 241.036 315.456 240.396 315.456 239.614C315.456 238.831 316.095 238.191 316.876 238.191H332.326C333.107 238.191 333.746 238.831 333.746 239.614C333.746 240.396 333.107 241.036 332.326 241.036Z" fill="black"/>
<path d="M332.326 250.31H316.876C316.095 250.31 315.456 249.67 315.456 248.887C315.456 248.105 316.095 247.465 316.876 247.465H332.326C333.107 247.465 333.746 248.105 333.746 248.887C333.746 249.67 333.107 250.31 332.326 250.31Z" fill="black"/>
<path d="M332.326 259.598H316.876C316.095 259.598 315.456 258.958 315.456 258.175C315.456 257.393 316.095 256.753 316.876 256.753H332.326C333.107 256.753 333.746 257.393 333.746 258.175C333.746 258.958 333.107 259.598 332.326 259.598Z" fill="black"/>
<path d="M332.326 268.887H316.876C316.095 268.887 315.456 268.247 315.456 267.464C315.456 266.682 316.095 266.042 316.876 266.042H332.326C333.107 266.042 333.746 266.682 333.746 267.464C333.746 268.247 333.107 268.887 332.326 268.887Z" fill="black"/>
<path d="M332.326 278.175H316.876C316.095 278.175 315.456 277.535 315.456 276.752C315.456 275.97 316.095 275.33 316.876 275.33H332.326C333.107 275.33 333.746 275.97 333.746 276.752C333.746 277.535 333.107 278.175 332.326 278.175Z" fill="black"/>
<path d="M332.326 287.448H316.876C316.095 287.448 315.456 286.808 315.456 286.026C315.456 285.244 316.095 284.604 316.876 284.604H332.326C333.107 284.604 333.746 285.244 333.746 286.026C333.746 286.808 333.107 287.448 332.326 287.448Z" fill="black"/>
</g>
<path d="M374.041 212.735H347.203C346.542 212.735 346.001 212.193 346.001 211.531C346.001 210.868 346.542 210.326 347.203 210.326H374.041C374.703 210.326 375.244 210.868 375.244 211.531C375.244 212.193 374.703 212.735 374.041 212.735Z" fill="#384C6B" fill-opacity="0.5"/>
<path d="M451.103 212.735H381.183C380.522 212.735 379.98 212.193 379.98 211.531C379.98 210.868 380.522 210.326 381.183 210.326H451.103C451.765 210.326 452.306 210.868 452.306 211.531C452.306 212.193 451.765 212.735 451.103 212.735Z" fill="#263238"/>
<g opacity="0.2">
<path d="M483.016 212.736H462.755C462.094 212.736 461.553 212.194 461.553 211.532C461.553 210.869 462.094 210.327 462.755 210.327H483.016C483.677 210.327 484.218 210.869 484.218 211.532C484.218 212.194 483.677 212.736 483.016 212.736Z" fill="#263238"/>
</g>
<g opacity="0.2">
<path d="M420.899 220.599H350.823C350.161 220.599 349.62 220.057 349.62 219.395C349.62 218.732 350.161 218.19 350.823 218.19H420.899C421.561 218.19 422.102 218.732 422.102 219.395C422.102 220.057 421.561 220.599 420.899 220.599Z" fill="#263238"/>
</g>
<path d="M492.636 220.6H427.321C426.659 220.6 426.118 220.058 426.118 219.396C426.118 218.733 426.659 218.191 427.321 218.191H492.636C493.297 218.191 493.838 218.733 493.838 219.396C493.838 220.058 493.297 220.6 492.636 220.6Z" fill="#384C6B" fill-opacity="0.5"/>
<path d="M392.354 228.465H350.811C350.149 228.465 349.608 227.923 349.608 227.26C349.608 226.598 350.149 226.056 350.811 226.056H392.354C393.016 226.056 393.557 226.598 393.557 227.26C393.557 227.923 393.016 228.465 392.354 228.465Z" fill="#263238"/>
<path d="M441.833 228.465H400.927C400.266 228.465 399.725 227.923 399.725 227.26C399.725 226.598 400.266 226.056 400.927 226.056H441.833C442.494 226.056 443.036 226.598 443.036 227.26C443.036 227.923 442.494 228.465 441.833 228.465Z" fill="#384C6B" fill-opacity="0.5"/>
<path d="M492.636 228.465H448.484C447.822 228.465 447.281 227.923 447.281 227.26C447.281 226.598 447.822 226.056 448.484 226.056H492.636C493.298 226.056 493.839 226.598 493.839 227.26C493.839 227.923 493.298 228.465 492.636 228.465Z" fill="#263238"/>
<path d="M396.201 236.331H371.275C370.613 236.331 370.072 235.789 370.072 235.126C370.072 234.464 370.613 233.922 371.275 233.922H396.201C396.862 233.922 397.403 234.464 397.403 235.126C397.403 235.789 396.862 236.331 396.201 236.331Z" fill="#263238"/>
<path d="M431.505 236.331H404.294C403.633 236.331 403.092 235.789 403.092 235.126C403.092 234.464 403.633 233.922 404.294 233.922H431.505C432.166 233.922 432.707 234.464 432.707 235.126C432.707 235.789 432.166 236.331 431.505 236.331Z" fill="#263238"/>
<g opacity="0.2">
<path d="M481.814 236.331H437.686C437.024 236.331 436.483 235.789 436.483 235.126C436.483 234.464 437.024 233.922 437.686 233.922H481.814C482.476 233.922 483.017 234.464 483.017 235.126C483.017 235.789 482.476 236.331 481.814 236.331Z" fill="#263238"/>
</g>
<g opacity="0.2">
<path d="M384.358 244.182H350.823C350.161 244.182 349.62 243.64 349.62 242.978C349.62 242.315 350.161 241.773 350.823 241.773H384.358C385.019 241.773 385.56 242.315 385.56 242.978C385.56 243.64 385.019 244.182 384.358 244.182Z" fill="#263238"/>
</g>
<path d="M388.553 252.049H350.822C350.16 252.049 349.619 251.507 349.619 250.844C349.619 250.182 350.16 249.64 350.822 249.64H388.553C389.215 249.64 389.756 250.182 389.756 250.844C389.756 251.507 389.215 252.049 388.553 252.049Z" fill="#384C6B" fill-opacity="0.5"/>
<path d="M451.584 252.049H394.746C394.085 252.049 393.544 251.507 393.544 250.844C393.544 250.182 394.085 249.64 394.746 249.64H451.584C452.246 249.64 452.787 250.182 452.787 250.844C452.787 251.507 452.246 252.049 451.584 252.049Z" fill="#263238"/>
<path d="M492.634 252.049H458.474C457.813 252.049 457.271 251.507 457.271 250.844C457.271 250.182 457.813 249.64 458.474 249.64H492.634C493.296 249.64 493.837 250.182 493.837 250.844C493.837 251.507 493.296 252.049 492.634 252.049Z" fill="#263238"/>
<g opacity="0.2">
<path d="M384.455 259.913H362.848C362.187 259.913 361.646 259.371 361.646 258.708C361.646 258.046 362.187 257.504 362.848 257.504H384.455C385.117 257.504 385.658 258.046 385.658 258.708C385.658 259.371 385.117 259.913 384.455 259.913Z" fill="#263238"/>
</g>
<g opacity="0.2">
<path d="M433.261 259.913H391.825C391.164 259.913 390.623 259.371 390.623 258.708C390.623 258.046 391.164 257.504 391.825 257.504H433.261C433.922 257.504 434.463 258.046 434.463 258.708C434.463 259.371 433.922 259.913 433.261 259.913Z" fill="#263238"/>
</g>
<path d="M481.813 259.913H441.352C440.691 259.913 440.149 259.371 440.149 258.708C440.149 258.046 440.691 257.504 441.352 257.504H481.813C482.474 257.504 483.015 258.046 483.015 258.708C483.015 259.371 482.474 259.913 481.813 259.913Z" fill="#263238"/>
<path d="M400.349 267.778H374.882C374.221 267.778 373.68 267.236 373.68 266.574C373.68 265.911 374.221 265.369 374.882 265.369H400.349C401.011 265.369 401.552 265.911 401.552 266.574C401.552 267.236 401.011 267.778 400.349 267.778Z" fill="#263238"/>
<g opacity="0.2">
<path d="M429.834 267.779H405.57C404.908 267.779 404.367 267.237 404.367 266.575C404.367 265.912 404.908 265.37 405.57 265.37H429.834C430.496 265.37 431.037 265.912 431.037 266.575C431.037 267.237 430.496 267.779 429.834 267.779Z" fill="#263238"/>
</g>
<path d="M481.814 267.778H437.457C436.796 267.778 436.255 267.236 436.255 266.574C436.255 265.911 436.796 265.369 437.457 265.369H481.814C482.476 265.369 483.017 265.911 483.017 266.574C483.017 267.236 482.476 267.778 481.814 267.778Z" fill="#384C6B" fill-opacity="0.5"/>
<g opacity="0.2">
<path d="M406.013 275.631H374.882C374.221 275.631 373.68 275.089 373.68 274.426C373.68 273.764 374.221 273.222 374.882 273.222H406.013C406.674 273.222 407.215 273.764 407.215 274.426C407.215 275.089 406.674 275.631 406.013 275.631Z" fill="#263238"/>
</g>
<path d="M321.731 182.473C320.312 182.473 319.157 181.32 319.157 179.9C319.157 178.48 320.311 177.326 321.731 177.326C323.151 177.326 324.304 178.481 324.304 179.9C324.304 181.318 323.149 182.473 321.731 182.473ZM321.731 178.32C320.859 178.32 320.151 179.029 320.151 179.901C320.151 180.773 320.859 181.481 321.731 181.481C322.602 181.481 323.312 180.773 323.312 179.901C323.312 179.029 322.602 178.32 321.731 178.32Z" fill="white"/>
<path d="M329.454 182.473C328.036 182.473 326.881 181.32 326.881 179.9C326.881 178.48 328.036 177.326 329.454 177.326C330.873 177.326 332.028 178.481 332.028 179.9C332.028 181.318 330.874 182.473 329.454 182.473ZM329.454 178.32C328.583 178.32 327.873 179.029 327.873 179.901C327.873 180.773 328.583 181.481 329.454 181.481C330.326 181.481 331.034 180.773 331.034 179.901C331.034 179.029 330.326 178.32 329.454 178.32Z" fill="white"/>
<path d="M337.177 182.473C335.758 182.473 334.604 181.32 334.604 179.9C334.604 178.48 335.757 177.326 337.177 177.326C338.597 177.326 339.751 178.481 339.751 179.9C339.751 181.318 338.596 182.473 337.177 182.473ZM337.177 178.32C336.305 178.32 335.597 179.029 335.597 179.901C335.597 180.773 336.305 181.481 337.177 181.481C338.049 181.481 338.758 180.773 338.758 179.901C338.758 179.029 338.049 178.32 337.177 178.32Z" fill="white"/>
</g>
<defs>
<clipPath id="clip0_9194_12922">
<rect width="710" height="530" fill="white" transform="translate(-23)"/>
</clipPath>
</defs>
</svg>
