<svg width="20" height="21" viewBox="0 0 20 21" fill="none" xmlns="http://www.w3.org/2000/svg">
<g id="sparkle">
<path id="Vector" d="M10 2.52203L8.41667 7.35537C8.33559 7.60638 8.19609 7.83457 8.00964 8.02116C7.82319 8.20776 7.59512 8.34743 7.34417 8.4287L2.5 10.022L7.33333 11.6054C7.58435 11.6864 7.81253 11.8259 7.99913 12.0124C8.18572 12.1988 8.3254 12.4269 8.40667 12.6779L10 17.522L11.5833 12.6887C11.6644 12.4377 11.8039 12.2095 11.9904 12.0229C12.1768 11.8363 12.4049 11.6966 12.6558 11.6154L17.5 10.022L12.6667 8.4387C12.4157 8.35763 12.1875 8.21813 12.0009 8.03168C11.8143 7.84523 11.6746 7.61715 11.5933 7.3662L10 2.52203Z" stroke="#6C727F" stroke-linecap="round" stroke-linejoin="round"/>
</g>
</svg>
